<svg xmlns="http://www.w3.org/2000/svg" xmlns:xlink="http://www.w3.org/1999/xlink" width="219" zoomAndPan="magnify" viewBox="0 0 164.25 30.000001" height="40" preserveAspectRatio="xMidYMid meet" version="1.2"><defs><clipPath id="e500f22637"><path d="M 2.285156 0 L 32 0 L 32 29.03125 L 2.285156 29.03125 Z M 2.285156 0 "/></clipPath></defs><g id="5de623deb7"><g clip-rule="nonzero" clip-path="url(#e500f22637)"><path style=" stroke:none;fill-rule:nonzero;fill:#00b4d8;fill-opacity:1;" d="M 31.320312 0 L 31.320312 29.03125 L 13.488281 29.03125 L 13.488281 23.132812 L 25.808594 23.132812 L 25.808594 17.386719 L 13.488281 17.386719 L 13.488281 11.722656 L 25.808594 11.722656 L 25.808594 6.054688 L 7.875 6.054688 L 7.875 29.03125 L 2.285156 29.03125 L 2.285156 0 Z M 31.320312 0 "/></g><path style=" stroke:none;fill-rule:nonzero;fill:#1c2033;fill-opacity:1;" d="M 55.667969 16.242188 L 55.667969 13.113281 L 48.277344 13.113281 L 48.277344 7.707031 L 57.082031 7.707031 L 57.082031 4.5 L 44.796875 4.5 L 44.796875 24.367188 L 48.277344 24.367188 L 48.277344 16.242188 Z M 55.667969 16.242188 "/><path style=" stroke:none;fill-rule:nonzero;fill:#1c2033;fill-opacity:1;" d="M 57.496094 17.625 C 57.496094 21.8125 60.511719 24.691406 64.671875 24.691406 C 68.828125 24.691406 71.84375 21.8125 71.84375 17.625 C 71.84375 13.441406 68.828125 10.5625 64.671875 10.5625 C 60.511719 10.5625 57.496094 13.441406 57.496094 17.625 Z M 60.8125 17.625 C 60.8125 15.179688 62.386719 13.523438 64.671875 13.523438 C 66.953125 13.523438 68.53125 15.179688 68.53125 17.625 C 68.53125 20.070312 66.953125 21.730469 64.671875 21.730469 C 62.386719 21.730469 60.8125 20.070312 60.8125 17.625 Z M 60.8125 17.625 "/><path style=" stroke:none;fill-rule:nonzero;fill:#1c2033;fill-opacity:1;" d="M 82.488281 10.886719 C 81.945312 10.75 81.484375 10.695312 81.023438 10.695312 C 79.226562 10.695312 77.953125 11.59375 77.378906 12.925781 L 77.191406 10.96875 L 74.066406 10.96875 L 74.066406 24.367188 L 77.378906 24.367188 L 77.378906 17.84375 C 77.378906 15.234375 78.875 13.957031 81.265625 13.957031 L 82.488281 13.957031 Z M 82.488281 10.886719 "/><path style=" stroke:none;fill-rule:nonzero;fill:#1c2033;fill-opacity:1;" d="M 87.640625 24.367188 L 87.640625 16.757812 C 87.640625 14.582031 88.917969 13.550781 90.496094 13.550781 C 92.070312 13.550781 93.074219 14.554688 93.074219 16.429688 L 93.074219 24.367188 L 96.390625 24.367188 L 96.390625 16.757812 C 96.390625 14.554688 97.613281 13.523438 99.21875 13.523438 C 100.792969 13.523438 101.828125 14.527344 101.828125 16.457031 L 101.828125 24.367188 L 105.113281 24.367188 L 105.113281 15.589844 C 105.113281 12.488281 103.320312 10.535156 100.058594 10.535156 C 98.023438 10.535156 96.445312 11.539062 95.765625 13.089844 C 95.058594 11.539062 93.648438 10.535156 91.609375 10.535156 C 89.679688 10.535156 88.320312 11.402344 87.640625 12.515625 L 87.371094 10.941406 L 84.324219 10.941406 L 84.324219 24.367188 Z M 87.640625 24.367188 "/><path style=" stroke:none;fill-rule:nonzero;fill:#1c2033;fill-opacity:1;" d="M 108.449219 24.367188 L 116.496094 24.367188 C 120.597656 24.367188 122.960938 22.382812 122.960938 18.984375 C 122.960938 16.675781 121.902344 15.097656 119.808594 14.417969 C 121.683594 13.632812 122.664062 12.054688 122.664062 9.855469 C 122.664062 6.539062 120.273438 4.5 116.359375 4.5 L 108.449219 4.5 Z M 116.058594 7.570312 C 118.015625 7.570312 119.101562 8.496094 119.101562 10.207031 C 119.101562 11.972656 118.042969 12.980469 116.140625 12.980469 L 111.929688 12.980469 L 111.929688 7.570312 Z M 116.359375 15.914062 C 118.289062 15.914062 119.402344 16.867188 119.402344 18.550781 C 119.402344 20.34375 118.316406 21.292969 116.359375 21.292969 L 111.929688 21.292969 L 111.929688 15.914062 Z M 116.359375 15.914062 "/><path style=" stroke:none;fill-rule:nonzero;fill:#1c2033;fill-opacity:1;" d="M 124.46875 17.625 C 124.46875 21.8125 127.484375 24.691406 131.640625 24.691406 C 135.800781 24.691406 138.816406 21.8125 138.816406 17.625 C 138.816406 13.441406 135.800781 10.5625 131.640625 10.5625 C 127.484375 10.5625 124.46875 13.441406 124.46875 17.625 Z M 127.78125 17.625 C 127.78125 15.179688 129.359375 13.523438 131.640625 13.523438 C 133.921875 13.523438 135.5 15.179688 135.5 17.625 C 135.5 20.070312 133.921875 21.730469 131.640625 21.730469 C 129.359375 21.730469 127.78125 20.070312 127.78125 17.625 Z M 127.78125 17.625 "/><path style=" stroke:none;fill-rule:nonzero;fill:#1c2033;fill-opacity:1;" d="M 144.378906 24.367188 L 144.378906 4.148438 L 141.089844 4.148438 L 141.089844 24.367188 Z M 144.378906 24.367188 "/><path style=" stroke:none;fill-rule:nonzero;fill:#1c2033;fill-opacity:1;" d="M 152.964844 24.71875 C 155.003906 24.71875 156.742188 23.820312 157.558594 22.273438 L 157.773438 24.367188 L 160.820312 24.367188 L 160.820312 4.148438 L 157.53125 4.148438 L 157.53125 12.652344 C 156.6875 11.320312 155.03125 10.535156 153.15625 10.535156 C 149.105469 10.535156 146.660156 13.523438 146.660156 17.707031 C 146.660156 21.867188 149.078125 24.71875 152.964844 24.71875 Z M 153.699219 21.675781 C 151.390625 21.675781 149.976562 19.992188 149.976562 17.597656 C 149.976562 15.207031 151.390625 13.496094 153.699219 13.496094 C 156.007812 13.496094 157.503906 15.179688 157.503906 17.597656 C 157.503906 20.019531 156.007812 21.675781 153.699219 21.675781 Z M 153.699219 21.675781 "/></g></svg>