<svg xmlns="http://www.w3.org/2000/svg" xmlns:xlink="http://www.w3.org/1999/xlink" width="246" zoomAndPan="magnify" viewBox="0 0 184.5 30.000001" height="40" preserveAspectRatio="xMidYMid meet" version="1.2"><defs><clipPath id="896d7c6533"><path d="M 167 9 L 181.234375 9 L 181.234375 27 L 167 27 Z M 167 9 "/></clipPath><clipPath id="1f5ec8ef68"><path d="M 2.734375 2 L 27 2 L 27 27 L 2.734375 27 Z M 2.734375 2 "/></clipPath><clipPath id="ef9ea56743"><path d="M 3 16 L 17 16 L 17 29.03125 L 3 29.03125 Z M 3 16 "/></clipPath></defs><g id="3b15040e77"><path style=" stroke:none;fill-rule:nonzero;fill:#1c2033;fill-opacity:1;" d="M 45.328125 2.230469 L 41.117188 2.230469 L 41.117188 26.269531 L 55.398438 26.269531 L 55.398438 22.390625 L 45.328125 22.390625 Z M 45.328125 2.230469 "/><path style=" stroke:none;fill-rule:nonzero;fill:#1c2033;fill-opacity:1;" d="M 60.230469 6.765625 C 61.542969 6.765625 62.628906 5.679688 62.628906 4.328125 C 62.628906 2.976562 61.542969 1.933594 60.230469 1.933594 C 58.847656 1.933594 57.761719 2.992188 57.761719 4.335938 C 57.761719 5.679688 58.855469 6.765625 60.230469 6.765625 Z M 58.234375 26.269531 L 62.246094 26.269531 L 62.246094 10.015625 L 58.234375 10.015625 Z M 58.234375 26.269531 "/><path style=" stroke:none;fill-rule:nonzero;fill:#1c2033;fill-opacity:1;" d="M 70.402344 26.269531 L 70.402344 17.523438 C 70.402344 14.894531 71.910156 13.179688 74.382812 13.179688 C 76.460938 13.179688 77.804688 14.492188 77.804688 17.226562 L 77.804688 26.277344 L 81.816406 26.277344 L 81.816406 16.265625 C 81.816406 12.054688 79.710938 9.53125 75.632812 9.53125 C 73.429688 9.53125 71.457031 10.484375 70.4375 12.128906 L 70.105469 10.023438 L 66.390625 10.023438 L 66.390625 26.277344 L 70.402344 26.277344 Z M 70.402344 26.269531 "/><path style=" stroke:none;fill-rule:nonzero;fill:#1c2033;fill-opacity:1;" d="M 93.027344 26.699219 C 97.269531 26.699219 100.230469 24.5625 100.917969 21.003906 L 97.203125 21.003906 C 96.738281 22.546875 95.296875 23.402344 93.089844 23.402344 C 90.421875 23.402344 88.914062 21.957031 88.621094 19.097656 L 100.851562 19.058594 L 100.851562 17.847656 C 100.851562 12.78125 97.757812 9.523438 92.890625 9.523438 C 88.125 9.523438 84.800781 13.039062 84.800781 18.144531 C 84.800781 23.175781 88.191406 26.699219 93.027344 26.699219 Z M 92.925781 12.816406 C 95.328125 12.816406 96.871094 14.292969 96.871094 16.53125 L 88.714844 16.53125 C 89.105469 14.101562 90.554688 12.816406 92.925781 12.816406 Z M 92.925781 12.816406 "/><path style=" stroke:none;fill-rule:nonzero;fill:#1c2033;fill-opacity:1;" d="M 106.066406 6.765625 C 107.382812 6.765625 108.46875 5.679688 108.46875 4.328125 C 108.46875 2.976562 107.382812 1.933594 106.066406 1.933594 C 104.6875 1.933594 103.609375 2.992188 103.609375 4.335938 C 103.609375 5.679688 104.679688 6.765625 106.066406 6.765625 Z M 104.058594 26.269531 L 108.070312 26.269531 L 108.070312 10.015625 L 104.058594 10.015625 Z M 104.058594 26.269531 "/><path style=" stroke:none;fill-rule:nonzero;fill:#1c2033;fill-opacity:1;" d="M 111.269531 18.113281 C 111.269531 23.277344 114.488281 26.699219 119.425781 26.699219 C 123.664062 26.699219 126.828125 24.097656 127.3125 20.316406 L 123.265625 20.316406 C 122.835938 22.09375 121.425781 23.078125 119.417969 23.078125 C 116.855469 23.078125 115.273438 21.171875 115.273438 18.113281 C 115.273438 15.054688 116.988281 13.113281 119.550781 13.113281 C 121.457031 13.113281 122.808594 14.066406 123.265625 15.914062 L 127.277344 15.914062 C 126.847656 11.996094 123.820312 9.53125 119.386719 9.53125 C 114.59375 9.53125 111.269531 13.082031 111.269531 18.113281 Z M 111.269531 18.113281 "/><path style=" stroke:none;fill-rule:nonzero;fill:#1c2033;fill-opacity:1;" d="M 129.347656 18.113281 C 129.347656 23.179688 132.996094 26.667969 138.03125 26.667969 C 143.0625 26.667969 146.722656 23.1875 146.722656 18.113281 C 146.722656 13.046875 143.070312 9.558594 138.03125 9.558594 C 133.003906 9.566406 129.347656 13.046875 129.347656 18.113281 Z M 133.363281 18.113281 C 133.363281 15.152344 135.269531 13.148438 138.03125 13.148438 C 140.796875 13.148438 142.703125 15.160156 142.703125 18.113281 C 142.703125 21.070312 140.796875 23.078125 138.03125 23.078125 C 135.269531 23.085938 133.363281 21.074219 133.363281 18.113281 Z M 133.363281 18.113281 "/><path style=" stroke:none;fill-rule:nonzero;fill:#1c2033;fill-opacity:1;" d="M 153.902344 26.269531 L 153.902344 17.523438 C 153.902344 14.894531 155.40625 13.179688 157.882812 13.179688 C 159.957031 13.179688 161.304688 14.492188 161.304688 17.226562 L 161.304688 26.277344 L 165.316406 26.277344 L 165.316406 16.265625 C 165.316406 12.054688 163.207031 9.53125 159.132812 9.53125 C 156.929688 9.53125 154.957031 10.484375 153.9375 12.128906 L 153.605469 10.023438 L 149.890625 10.023438 L 149.890625 26.277344 L 153.902344 26.277344 Z M 153.902344 26.269531 "/><g clip-rule="nonzero" clip-path="url(#896d7c6533)"><path style=" stroke:none;fill-rule:nonzero;fill:#1c2033;fill-opacity:1;" d="M 181.234375 21.371094 C 181.234375 24.660156 178.441406 26.707031 174.429688 26.707031 C 170.382812 26.707031 167.828125 24.527344 167.820312 21.347656 L 171.625 21.347656 C 171.652344 22.761719 172.710938 23.65625 174.550781 23.65625 C 176.417969 23.65625 177.445312 22.894531 177.445312 21.710938 C 177.445312 20.882812 177.023438 20.300781 175.574219 19.96875 L 172.644531 19.273438 C 169.71875 18.617188 168.304688 17.234375 168.304688 14.632812 C 168.304688 11.441406 170.996094 9.53125 174.75 9.53125 C 178.398438 9.53125 180.859375 11.640625 180.894531 14.796875 L 177.082031 14.796875 C 177.058594 13.414062 176.128906 12.527344 174.585938 12.527344 C 173.011719 12.527344 172.089844 13.253906 172.089844 14.464844 C 172.089844 15.386719 172.820312 15.972656 174.195312 16.304688 L 177.128906 17 C 179.644531 17.566406 181.027344 18.691406 181.210938 20.824219 Z M 181.234375 21.371094 "/></g><g clip-rule="nonzero" clip-path="url(#1f5ec8ef68)"><path style=" stroke:none;fill-rule:nonzero;fill:#00b4d8;fill-opacity:1;" d="M 25.6875 25.597656 C 26.742188 24.542969 26.742188 22.835938 25.6875 21.78125 L 7.34375 3.4375 C 6.285156 2.378906 4.582031 2.378906 3.523438 3.4375 C 2.46875 4.492188 2.46875 6.199219 3.523438 7.257812 L 21.867188 25.597656 C 22.921875 26.65625 24.628906 26.65625 25.6875 25.597656 Z M 25.6875 25.597656 "/></g><path style=" stroke:none;fill-rule:nonzero;fill:#00b4d8;fill-opacity:1;" d="M 25.199219 12.058594 C 26.253906 11 26.253906 9.296875 25.199219 8.238281 L 17.753906 0.792969 C 16.695312 -0.265625 14.988281 -0.265625 13.933594 0.792969 C 12.875 1.847656 12.875 3.554688 13.933594 4.613281 L 21.378906 12.058594 C 22.4375 13.105469 24.140625 13.105469 25.199219 12.058594 Z M 25.199219 12.058594 "/><g clip-rule="nonzero" clip-path="url(#ef9ea56743)"><path style=" stroke:none;fill-rule:nonzero;fill:#00b4d8;fill-opacity:1;" d="M 15.277344 28.242188 C 16.332031 27.1875 16.332031 25.480469 15.277344 24.425781 L 7.832031 16.976562 C 6.773438 15.921875 5.066406 15.921875 4.011719 16.976562 C 2.957031 18.035156 2.957031 19.742188 4.011719 20.796875 L 11.457031 28.242188 C 12.515625 29.300781 14.222656 29.300781 15.277344 28.242188 Z M 15.277344 28.242188 "/></g></g></svg>