<svg xmlns="http://www.w3.org/2000/svg" xmlns:xlink="http://www.w3.org/1999/xlink" width="161" zoomAndPan="magnify" viewBox="0 0 120.75 30.000001" height="40" preserveAspectRatio="xMidYMid meet" version="1.2"><defs><clipPath id="b26ea102e9"><path d="M 13 12 L 31.007812 12 L 31.007812 17 L 13 17 Z M 13 12 "/></clipPath><filter x="0%" y="0%" width="100%" filterUnits="objectBoundingBox" id="37d8c9dd04" height="100%"><feColorMatrix values="0 0 0 0 1 0 0 0 0 1 0 0 0 0 1 0 0 0 1 0" type="matrix" in="SourceGraphic"/></filter><clipPath id="722625dc1d"><path d="M 0.441406 0.308594 L 18 0.308594 L 18 4.722656 L 0.441406 4.722656 Z M 0.441406 0.308594 "/></clipPath><clipPath id="92c20fcb6a"><rect x="0" width="19" y="0" height="5"/></clipPath><clipPath id="0b0f232554"><path d="M 19 12 L 31.007812 12 L 31.007812 29 L 19 29 Z M 19 12 "/></clipPath><clipPath id="d9907064d3"><path d="M 1.863281 0 L 24 0 L 24 29.03125 L 1.863281 29.03125 Z M 1.863281 0 "/></clipPath><clipPath id="b566da44e9"><path d="M 0.441406 0.0976562 L 11 0.0976562 L 11 13.335938 L 0.441406 13.335938 Z M 0.441406 0.0976562 "/></clipPath><clipPath id="65def6aa8b"><rect x="0" width="12" y="0" height="14"/></clipPath></defs><g id="9db1ba7203"><g clip-rule="nonzero" clip-path="url(#b26ea102e9)"><g mask="url(#55f570c8d8)" transform="matrix(1,0,0,1,13,12)"><g clip-path="url(#92c20fcb6a)"><g clip-rule="nonzero" clip-path="url(#722625dc1d)"><path style=" stroke:none;fill-rule:nonzero;fill:#00b4d8;fill-opacity:1;" d="M 17.960938 1.320312 C 17.945312 1.175781 17.878906 1.039062 17.773438 0.941406 C 17.664062 0.84375 17.523438 0.789062 17.378906 0.785156 L 2.851562 0.785156 C 2.457031 0.796875 2.074219 0.90625 1.738281 1.113281 C 1.398438 1.316406 1.121094 1.601562 0.929688 1.945312 C 0.753906 2.253906 0.660156 2.601562 0.660156 2.957031 C 0.660156 3.3125 0.753906 3.660156 0.929688 3.96875 C 0.980469 4.066406 1.054688 4.144531 1.148438 4.207031 C 1.238281 4.265625 1.34375 4.296875 1.453125 4.304688 L 17.414062 4.304688 C 17.558594 4.300781 17.699219 4.246094 17.808594 4.148438 C 17.914062 4.050781 17.980469 3.914062 17.996094 3.769531 C 17.996094 3.316406 17.996094 2.933594 17.996094 2.609375 C 17.996094 2.285156 17.996094 1.761719 17.960938 1.320312 Z M 17.960938 1.320312 "/></g></g><mask id="55f570c8d8"><g filter="url(#37d8c9dd04)"><rect x="0" width="120.75" y="0" height="30.000001" style="fill:#000000;fill-opacity:0.72;stroke:none;"/></g></mask></g></g><g clip-rule="nonzero" clip-path="url(#0b0f232554)"><path style=" stroke:none;fill-rule:nonzero;fill:#00b4d8;fill-opacity:1;" d="M 30.949219 13.320312 C 30.9375 13.175781 30.871094 13.042969 30.765625 12.941406 C 30.660156 12.84375 30.523438 12.789062 30.378906 12.785156 L 28.046875 12.785156 C 27.964844 12.785156 27.882812 12.804688 27.808594 12.839844 C 27.734375 12.871094 27.667969 12.921875 27.613281 12.984375 C 27.5625 13.042969 27.519531 13.113281 27.496094 13.1875 C 27.472656 13.265625 27.464844 13.34375 27.476562 13.425781 C 27.476562 13.796875 27.476562 14.167969 27.476562 14.585938 C 27.472656 16.4375 27 18.261719 26.105469 19.886719 C 25.207031 21.507812 23.914062 22.882812 22.347656 23.875 C 22.183594 23.980469 22.03125 24.109375 21.855469 24.203125 C 21 24.6875 20.082031 25.054688 19.128906 25.292969 L 20.65625 28 C 20.707031 28.089844 20.78125 28.164062 20.871094 28.214844 C 20.960938 28.265625 21.066406 28.289062 21.167969 28.289062 C 21.230469 28.300781 21.292969 28.300781 21.355469 28.289062 L 21.726562 28.136719 L 22.066406 28 C 22.582031 27.785156 23.085938 27.542969 23.570312 27.265625 C 25.84375 25.992188 27.730469 24.132812 29.039062 21.882812 C 30.347656 19.636719 31.027344 17.078125 31.007812 14.480469 C 31.007812 14.050781 30.984375 13.714844 30.949219 13.320312 Z M 30.949219 13.320312 "/></g><g clip-rule="nonzero" clip-path="url(#d9907064d3)"><path style=" stroke:none;fill-rule:nonzero;fill:#00b4d8;fill-opacity:1;" d="M 22.699219 24.34375 C 22.621094 24.210938 22.496094 24.109375 22.347656 24.0625 L 22.183594 24.0625 C 22.082031 24.066406 21.984375 24.089844 21.894531 24.132812 C 20.230469 25.074219 18.351562 25.566406 16.4375 25.5625 C 13.503906 25.554688 10.6875 24.390625 8.613281 22.324219 C 6.539062 20.257812 5.371094 17.453125 5.363281 14.53125 C 5.371094 11.605469 6.539062 8.804688 8.613281 6.734375 C 10.6875 4.667969 13.503906 3.503906 16.4375 3.496094 C 18.347656 3.5 20.226562 3.988281 21.894531 4.925781 C 21.980469 4.980469 22.082031 5.007812 22.183594 5.007812 L 22.3125 5.007812 C 22.394531 4.988281 22.46875 4.957031 22.535156 4.90625 C 22.601562 4.859375 22.65625 4.796875 22.699219 4.726562 L 23.863281 2.707031 C 23.941406 2.574219 23.960938 2.414062 23.921875 2.265625 C 23.882812 2.113281 23.785156 1.984375 23.652344 1.90625 C 21.460938 0.671875 18.980469 0.0234375 16.460938 0.0234375 C 12.597656 0.03125 8.894531 1.5625 6.164062 4.285156 C 3.433594 7.003906 1.894531 10.691406 1.890625 14.542969 C 1.894531 18.390625 3.433594 22.078125 6.164062 24.800781 C 8.894531 27.519531 12.597656 29.050781 16.460938 29.058594 C 18.980469 29.058594 21.460938 28.410156 23.652344 27.175781 C 23.71875 27.140625 23.777344 27.089844 23.824219 27.027344 C 23.871094 26.96875 23.90625 26.898438 23.925781 26.824219 C 23.945312 26.75 23.949219 26.675781 23.941406 26.601562 C 23.929688 26.523438 23.902344 26.453125 23.863281 26.386719 Z M 22.699219 24.34375 "/></g><g mask="url(#c021b3b072)" transform="matrix(1,0,0,1,13,15)"><g clip-path="url(#65def6aa8b)"><g clip-rule="nonzero" clip-path="url(#b566da44e9)"><path style=" stroke:none;fill-rule:nonzero;fill:#00b4d8;fill-opacity:1;" d="M 5.101562 1.257812 L 1.417969 1.257812 C 1.316406 1.25 1.214844 1.21875 1.125 1.164062 C 1.035156 1.109375 0.960938 1.035156 0.90625 0.945312 L 7.679688 12.894531 C 7.730469 12.984375 7.804688 13.058594 7.894531 13.109375 C 7.984375 13.160156 8.089844 13.1875 8.191406 13.183594 C 8.257812 13.195312 8.324219 13.195312 8.390625 13.183594 C 9.160156 12.910156 9.90625 12.566406 10.617188 12.164062 C 10.683594 12.125 10.742188 12.074219 10.789062 12.015625 C 10.835938 11.953125 10.871094 11.886719 10.890625 11.8125 C 10.910156 11.738281 10.914062 11.660156 10.902344 11.585938 C 10.890625 11.511719 10.867188 11.4375 10.828125 11.371094 Z M 5.101562 1.257812 "/></g></g><mask id="c021b3b072"><g filter="url(#37d8c9dd04)"><rect x="0" width="120.75" y="0" height="30.000001" style="fill:#000000;fill-opacity:0.56;stroke:none;"/></g></mask></g><path style=" stroke:none;fill-rule:nonzero;fill:#111928;fill-opacity:1;" d="M 47.417969 9.914062 L 47.417969 22.214844 L 45.246094 22.214844 L 45.246094 9.914062 L 41.9375 9.914062 L 41.9375 7.878906 L 50.714844 7.878906 L 50.714844 9.914062 Z M 47.417969 9.914062 "/><path style=" stroke:none;fill-rule:nonzero;fill:#111928;fill-opacity:1;" d="M 58.144531 13.171875 L 60.25 13.171875 L 60.25 22.214844 L 58.144531 22.214844 L 58.144531 21.269531 C 57.28125 22.074219 56.351562 22.476562 55.359375 22.476562 C 54.101562 22.476562 53.066406 22.023438 52.246094 21.121094 C 51.429688 20.195312 51.023438 19.046875 51.023438 17.664062 C 51.023438 16.308594 51.429688 15.179688 52.246094 14.277344 C 53.058594 13.371094 54.078125 12.921875 55.300781 12.921875 C 56.359375 12.921875 57.304688 13.355469 58.144531 14.21875 Z M 53.167969 17.664062 C 53.167969 18.53125 53.402344 19.238281 53.867188 19.78125 C 54.34375 20.332031 54.949219 20.609375 55.675781 20.609375 C 56.453125 20.609375 57.078125 20.34375 57.558594 19.808594 C 58.035156 19.257812 58.273438 18.558594 58.273438 17.710938 C 58.273438 16.863281 58.035156 16.164062 57.558594 15.613281 C 57.078125 15.074219 56.457031 14.804688 55.691406 14.804688 C 54.972656 14.804688 54.371094 15.078125 53.886719 15.621094 C 53.40625 16.171875 53.167969 16.855469 53.167969 17.664062 Z M 53.167969 17.664062 "/><path style=" stroke:none;fill-rule:nonzero;fill:#111928;fill-opacity:1;" d="M 64.996094 13.171875 L 64.996094 22.214844 L 62.898438 22.214844 L 62.898438 13.171875 Z M 62.582031 9.410156 C 62.582031 9.046875 62.714844 8.730469 62.980469 8.464844 C 63.25 8.199219 63.570312 8.0625 63.941406 8.0625 C 64.320312 8.0625 64.644531 8.199219 64.910156 8.464844 C 65.179688 8.722656 65.3125 9.042969 65.3125 9.421875 C 65.3125 9.796875 65.179688 10.121094 64.910156 10.386719 C 64.652344 10.652344 64.332031 10.785156 63.953125 10.785156 C 63.574219 10.785156 63.25 10.652344 62.980469 10.386719 C 62.714844 10.121094 62.582031 9.792969 62.582031 9.410156 Z M 62.582031 9.410156 "/><path style=" stroke:none;fill-rule:nonzero;fill:#111928;fill-opacity:1;" d="M 67.652344 6.53125 L 69.75 6.53125 L 69.75 22.214844 L 67.652344 22.214844 Z M 67.652344 6.53125 "/><path style=" stroke:none;fill-rule:nonzero;fill:#111928;fill-opacity:1;" d="M 80.207031 14.75 L 86.152344 14.75 L 86.152344 15.222656 C 86.152344 16.300781 86.027344 17.253906 85.769531 18.082031 C 85.523438 18.851562 85.101562 19.570312 84.511719 20.238281 C 83.175781 21.734375 81.476562 22.484375 79.414062 22.484375 C 77.402344 22.484375 75.675781 21.761719 74.242188 20.3125 C 72.804688 18.855469 72.089844 17.113281 72.089844 15.074219 C 72.089844 12.996094 72.820312 11.230469 74.277344 9.78125 C 75.738281 8.328125 77.515625 7.601562 79.609375 7.601562 C 80.734375 7.601562 81.785156 7.828125 82.761719 8.289062 C 83.691406 8.746094 84.609375 9.488281 85.511719 10.515625 L 83.964844 11.992188 C 82.78125 10.425781 81.34375 9.644531 79.648438 9.644531 C 78.125 9.644531 76.847656 10.164062 75.816406 11.210938 C 74.785156 12.238281 74.269531 13.527344 74.269531 15.074219 C 74.269531 16.671875 74.84375 17.988281 75.992188 19.019531 C 77.070312 19.980469 78.234375 20.460938 79.488281 20.460938 C 80.558594 20.460938 81.519531 20.101562 82.371094 19.382812 C 83.222656 18.660156 83.695312 17.792969 83.796875 16.785156 L 80.207031 16.785156 Z M 80.207031 14.75 "/><path style=" stroke:none;fill-rule:nonzero;fill:#111928;fill-opacity:1;" d="M 88.492188 13.171875 L 90.589844 13.171875 L 90.589844 13.980469 C 90.976562 13.578125 91.316406 13.300781 91.617188 13.152344 C 91.921875 12.996094 92.28125 12.921875 92.695312 12.921875 C 93.25 12.921875 93.828125 13.101562 94.429688 13.460938 L 93.46875 15.371094 C 93.074219 15.085938 92.683594 14.945312 92.304688 14.945312 C 91.160156 14.945312 90.589844 15.804688 90.589844 17.527344 L 90.589844 22.214844 L 88.492188 22.214844 Z M 88.492188 13.171875 "/><path style=" stroke:none;fill-rule:nonzero;fill:#111928;fill-opacity:1;" d="M 98.027344 13.171875 L 98.027344 22.214844 L 95.929688 22.214844 L 95.929688 13.171875 Z M 95.613281 9.410156 C 95.613281 9.046875 95.75 8.730469 96.015625 8.464844 C 96.28125 8.199219 96.601562 8.0625 96.976562 8.0625 C 97.355469 8.0625 97.675781 8.199219 97.945312 8.464844 C 98.210938 8.722656 98.34375 9.042969 98.34375 9.421875 C 98.34375 9.796875 98.210938 10.121094 97.945312 10.386719 C 97.683594 10.652344 97.363281 10.785156 96.984375 10.785156 C 96.605469 10.785156 96.28125 10.652344 96.015625 10.386719 C 95.75 10.121094 95.613281 9.792969 95.613281 9.410156 Z M 95.613281 9.410156 "/><path style=" stroke:none;fill-rule:nonzero;fill:#111928;fill-opacity:1;" d="M 107.378906 6.53125 L 109.484375 6.53125 L 109.484375 22.214844 L 107.378906 22.214844 L 107.378906 21.269531 C 106.550781 22.074219 105.617188 22.476562 104.570312 22.476562 C 103.328125 22.476562 102.296875 22.023438 101.476562 21.121094 C 100.664062 20.195312 100.257812 19.046875 100.257812 17.664062 C 100.257812 16.316406 100.664062 15.1875 101.476562 14.285156 C 102.285156 13.375 103.300781 12.921875 104.523438 12.921875 C 105.585938 12.921875 106.539062 13.355469 107.378906 14.21875 Z M 102.398438 17.664062 C 102.398438 18.53125 102.632812 19.238281 103.097656 19.78125 C 103.578125 20.332031 104.179688 20.609375 104.90625 20.609375 C 105.683594 20.609375 106.3125 20.34375 106.789062 19.808594 C 107.269531 19.257812 107.507812 18.558594 107.507812 17.710938 C 107.507812 16.863281 107.269531 16.164062 106.789062 15.613281 C 106.3125 15.074219 105.691406 14.804688 104.925781 14.804688 C 104.203125 14.804688 103.601562 15.078125 103.117188 15.621094 C 102.640625 16.171875 102.398438 16.855469 102.398438 17.664062 Z M 102.398438 17.664062 "/><path style=" stroke:none;fill-rule:nonzero;fill:#111928;fill-opacity:1;" d="M 117.40625 14.710938 L 115.671875 15.632812 C 115.398438 15.074219 115.058594 14.796875 114.65625 14.796875 C 114.464844 14.796875 114.300781 14.859375 114.164062 14.992188 C 114.027344 15.113281 113.957031 15.277344 113.957031 15.472656 C 113.957031 15.820312 114.363281 16.164062 115.167969 16.503906 C 116.28125 16.980469 117.03125 17.421875 117.414062 17.824219 C 117.800781 18.226562 117.992188 18.765625 117.992188 19.449219 C 117.992188 20.320312 117.671875 21.050781 117.023438 21.640625 C 116.398438 22.195312 115.636719 22.476562 114.75 22.476562 C 113.226562 22.476562 112.148438 21.734375 111.515625 20.257812 L 113.304688 19.429688 C 113.554688 19.863281 113.742188 20.136719 113.875 20.257812 C 114.128906 20.492188 114.433594 20.609375 114.785156 20.609375 C 115.496094 20.609375 115.847656 20.285156 115.847656 19.644531 C 115.847656 19.273438 115.578125 18.925781 115.027344 18.601562 C 114.816406 18.496094 114.605469 18.394531 114.394531 18.296875 C 114.183594 18.199219 113.96875 18.09375 113.753906 17.992188 C 113.144531 17.691406 112.714844 17.394531 112.464844 17.097656 C 112.148438 16.722656 111.992188 16.234375 111.992188 15.640625 C 111.992188 14.855469 112.261719 14.203125 112.800781 13.691406 C 113.355469 13.175781 114.027344 12.921875 114.816406 12.921875 C 115.976562 12.921875 116.839844 13.519531 117.40625 14.710938 Z M 117.40625 14.710938 "/></g></svg>