<svg xmlns="http://www.w3.org/2000/svg" xmlns:xlink="http://www.w3.org/1999/xlink" width="171" zoomAndPan="magnify" viewBox="0 0 128.25 30.000001" height="40" preserveAspectRatio="xMidYMid meet" version="1.2"><defs><clipPath id="860479f15c"><path d="M 16 10 L 28 10 L 28 29.03125 L 16 29.03125 Z M 16 10 "/></clipPath><clipPath id="753faf6fe5"><path d="M 111 5 L 125.820312 5 L 125.820312 24 L 111 24 Z M 111 5 "/></clipPath></defs><g id="a5f4c4a84b"><g clip-rule="nonzero" clip-path="url(#860479f15c)"><path style=" stroke:none;fill-rule:nonzero;fill:#00b4d8;fill-opacity:1;" d="M 27.179688 10.695312 L 27.179688 19.820312 C 27.179688 21.671875 26.226562 23.394531 24.660156 24.382812 L 17.324219 28.996094 C 17.167969 29.09375 16.960938 28.980469 16.960938 28.796875 L 16.960938 25.570312 C 16.960938 25.039062 17.226562 24.546875 17.667969 24.25 L 22.347656 21.128906 C 23 20.691406 23.394531 19.960938 23.394531 19.175781 L 23.394531 12.886719 C 23.394531 12.382812 23.660156 11.917969 24.097656 11.667969 L 26.476562 10.296875 C 26.792969 10.117188 27.179688 10.34375 27.179688 10.703125 Z M 27.179688 10.695312 "/></g><path style=" stroke:none;fill-rule:nonzero;fill:#00b4d8;fill-opacity:1;" d="M 26.613281 7.964844 L 16.25 13.949219 C 15.519531 14.367188 15.074219 15.140625 15.074219 15.980469 L 15.074219 28.589844 C 15.074219 28.769531 14.878906 28.882812 14.722656 28.789062 L 5.121094 23.203125 C 3.425781 22.21875 2.382812 20.410156 2.382812 18.449219 L 2.382812 10.816406 C 2.382812 8.515625 3.609375 6.390625 5.601562 5.242188 L 14.34375 0.191406 C 14.78125 -0.0625 15.316406 -0.0625 15.75 0.191406 L 17.9375 1.453125 C 18.40625 1.726562 18.40625 2.402344 17.9375 2.671875 L 7.503906 8.695312 C 6.777344 9.113281 6.332031 9.886719 6.332031 10.726562 L 6.332031 17.984375 C 6.332031 18.824219 6.777344 19.597656 7.503906 20.015625 L 10.964844 22.011719 C 11.039062 22.054688 11.128906 22.003906 11.128906 21.917969 L 11.128906 14.707031 C 11.128906 13.242188 11.90625 11.898438 13.175781 11.164062 L 23.199219 5.375 C 23.667969 5.105469 24.25 5.128906 24.699219 5.433594 L 26.65625 6.769531 C 27.082031 7.0625 27.058594 7.699219 26.609375 7.964844 Z M 26.613281 7.964844 "/><path style=" stroke:none;fill-rule:nonzero;fill:#101828;fill-opacity:1;" d="M 38.46875 6.660156 L 41.816406 6.660156 L 41.816406 15.75 C 41.816406 16.496094 41.917969 17.160156 42.121094 17.746094 C 42.328125 18.324219 42.628906 18.8125 43.03125 19.214844 C 43.4375 19.613281 43.941406 19.921875 44.539062 20.132812 C 45.136719 20.335938 45.835938 20.4375 46.632812 20.4375 C 47.417969 20.4375 48.113281 20.335938 48.710938 20.132812 C 49.316406 19.921875 49.820312 19.613281 50.222656 19.214844 C 50.628906 18.8125 50.933594 18.324219 51.140625 17.746094 C 51.34375 17.160156 51.445312 16.496094 51.445312 15.75 L 51.445312 6.660156 L 54.792969 6.660156 L 54.792969 16.152344 C 54.792969 17.234375 54.609375 18.222656 54.242188 19.109375 C 53.878906 19.996094 53.347656 20.753906 52.648438 21.390625 C 51.953125 22.023438 51.097656 22.511719 50.082031 22.855469 C 49.078125 23.203125 47.925781 23.375 46.632812 23.375 C 45.335938 23.375 44.179688 23.203125 43.167969 22.855469 C 42.160156 22.511719 41.308594 22.023438 40.613281 21.390625 C 39.914062 20.753906 39.382812 19.996094 39.019531 19.109375 C 38.652344 18.222656 38.46875 17.234375 38.46875 16.152344 Z M 38.46875 6.660156 "/><path style=" stroke:none;fill-rule:nonzero;fill:#101828;fill-opacity:1;" d="M 57.105469 6.660156 L 60.472656 6.660156 L 60.472656 23.164062 L 57.105469 23.164062 Z M 57.105469 6.660156 "/><path style=" stroke:none;fill-rule:nonzero;fill:#101828;fill-opacity:1;" d="M 62.046875 16.984375 C 62.046875 15.992188 62.234375 15.097656 62.605469 14.304688 C 62.980469 13.5 63.492188 12.820312 64.148438 12.253906 C 64.808594 11.6875 65.589844 11.25 66.492188 10.945312 C 67.398438 10.636719 68.382812 10.480469 69.4375 10.480469 C 69.886719 10.480469 70.332031 10.511719 70.769531 10.566406 C 71.210938 10.621094 71.632812 10.699219 72.035156 10.796875 C 72.445312 10.898438 72.824219 11.015625 73.175781 11.15625 C 73.535156 11.292969 73.851562 11.4375 74.125 11.601562 L 74.125 5.644531 L 77.25 5.644531 L 77.25 23.164062 L 74.125 23.164062 L 74.125 21.992188 C 73.851562 22.179688 73.527344 22.359375 73.15625 22.53125 C 72.78125 22.699219 72.378906 22.847656 71.949219 22.972656 C 71.519531 23.097656 71.074219 23.199219 70.609375 23.269531 C 70.152344 23.347656 69.699219 23.382812 69.246094 23.382812 C 68.191406 23.382812 67.21875 23.230469 66.332031 22.921875 C 65.453125 22.609375 64.695312 22.171875 64.0625 21.609375 C 63.429688 21.046875 62.933594 20.375 62.574219 19.59375 C 62.222656 18.804688 62.046875 17.9375 62.046875 16.984375 Z M 65.332031 16.984375 C 65.332031 17.484375 65.429688 17.957031 65.625 18.402344 C 65.832031 18.84375 66.117188 19.234375 66.492188 19.574219 C 66.871094 19.902344 67.324219 20.167969 67.855469 20.363281 C 68.390625 20.554688 68.988281 20.648438 69.648438 20.648438 C 70.070312 20.648438 70.492188 20.609375 70.914062 20.535156 C 71.339844 20.449219 71.742188 20.332031 72.128906 20.183594 C 72.523438 20.039062 72.890625 19.859375 73.226562 19.648438 C 73.574219 19.4375 73.871094 19.199219 74.125 18.9375 L 74.125 14.621094 C 73.808594 14.367188 73.476562 14.152344 73.121094 13.976562 C 72.769531 13.800781 72.410156 13.65625 72.046875 13.542969 C 71.679688 13.429688 71.308594 13.351562 70.9375 13.300781 C 70.5625 13.246094 70.203125 13.214844 69.847656 13.214844 C 69.132812 13.214844 68.492188 13.316406 67.929688 13.511719 C 67.371094 13.703125 66.898438 13.964844 66.511719 14.304688 C 66.132812 14.640625 65.839844 15.039062 65.636719 15.496094 C 65.433594 15.953125 65.332031 16.449219 65.332031 16.984375 Z M 65.332031 16.984375 "/><path style=" stroke:none;fill-rule:nonzero;fill:#101828;fill-opacity:1;" d="M 79.140625 16.890625 C 79.140625 16.046875 79.3125 15.242188 79.660156 14.472656 C 80.003906 13.699219 80.5 13.015625 81.148438 12.425781 C 81.792969 11.832031 82.585938 11.363281 83.523438 11.007812 C 84.464844 10.65625 85.535156 10.480469 86.734375 10.480469 C 87.921875 10.480469 88.992188 10.660156 89.941406 11.019531 C 90.898438 11.371094 91.710938 11.859375 92.371094 12.476562 C 93.039062 13.097656 93.550781 13.824219 93.902344 14.664062 C 94.261719 15.5 94.441406 16.398438 94.441406 17.355469 C 94.441406 17.476562 94.4375 17.605469 94.429688 17.746094 C 94.429688 17.878906 94.421875 18.003906 94.410156 18.117188 L 82.625 18.117188 C 82.757812 18.488281 82.972656 18.832031 83.269531 19.140625 C 83.570312 19.449219 83.949219 19.71875 84.398438 19.941406 C 84.851562 20.167969 85.371094 20.34375 85.960938 20.46875 C 86.554688 20.589844 87.207031 20.648438 87.925781 20.648438 C 88.644531 20.648438 89.359375 20.574219 90.070312 20.429688 C 90.78125 20.273438 91.460938 20.078125 92.105469 19.847656 L 93.164062 22.234375 C 92.753906 22.421875 92.339844 22.59375 91.917969 22.742188 C 91.5 22.882812 91.066406 23 90.609375 23.097656 C 90.15625 23.191406 89.683594 23.261719 89.183594 23.3125 C 88.691406 23.359375 88.167969 23.382812 87.621094 23.382812 C 86.21875 23.382812 84.992188 23.214844 83.933594 22.878906 C 82.878906 22.539062 81.996094 22.078125 81.285156 21.496094 C 80.574219 20.910156 80.039062 20.222656 79.679688 19.4375 C 79.320312 18.648438 79.140625 17.800781 79.140625 16.890625 Z M 91.125 15.675781 C 91.011719 15.332031 90.835938 15.011719 90.597656 14.714844 C 90.363281 14.414062 90.074219 14.152344 89.722656 13.933594 C 89.371094 13.710938 88.960938 13.535156 88.496094 13.40625 C 88.03125 13.28125 87.519531 13.214844 86.964844 13.214844 C 86.375 13.214844 85.835938 13.285156 85.351562 13.417969 C 84.863281 13.550781 84.4375 13.730469 84.074219 13.957031 C 83.707031 14.179688 83.398438 14.441406 83.152344 14.738281 C 82.914062 15.03125 82.738281 15.347656 82.625 15.675781 Z M 91.125 15.675781 "/><path style=" stroke:none;fill-rule:nonzero;fill:#101828;fill-opacity:1;" d="M 95.707031 16.964844 C 95.707031 16.050781 95.875 15.199219 96.203125 14.410156 C 96.542969 13.613281 97.03125 12.929688 97.671875 12.351562 C 98.320312 11.765625 99.105469 11.308594 100.035156 10.976562 C 100.972656 10.648438 102.039062 10.480469 103.234375 10.480469 C 103.757812 10.480469 104.28125 10.511719 104.808594 10.578125 C 105.335938 10.640625 105.84375 10.730469 106.328125 10.851562 C 106.824219 10.964844 107.285156 11.101562 107.714844 11.261719 C 108.140625 11.417969 108.515625 11.589844 108.832031 11.78125 L 107.386719 14.136719 C 106.703125 13.820312 106.054688 13.585938 105.441406 13.4375 C 104.835938 13.289062 104.222656 13.214844 103.59375 13.214844 C 102.878906 13.214844 102.234375 13.3125 101.664062 13.5 C 101.09375 13.683594 100.605469 13.945312 100.207031 14.28125 C 99.8125 14.613281 99.507812 15.007812 99.296875 15.464844 C 99.09375 15.917969 98.992188 16.410156 98.992188 16.945312 C 98.992188 17.480469 99.101562 17.976562 99.320312 18.433594 C 99.542969 18.882812 99.855469 19.273438 100.257812 19.605469 C 100.667969 19.929688 101.15625 20.183594 101.726562 20.375 C 102.304688 20.558594 102.945312 20.648438 103.648438 20.648438 C 104.421875 20.648438 105.152344 20.539062 105.832031 20.324219 C 106.523438 20.105469 107.164062 19.8125 107.753906 19.445312 L 109.203125 21.800781 C 108.828125 22.027344 108.425781 22.238281 107.988281 22.433594 C 107.550781 22.625 107.082031 22.789062 106.582031 22.929688 C 106.089844 23.070312 105.570312 23.179688 105.019531 23.257812 C 104.476562 23.34375 103.914062 23.382812 103.332031 23.382812 C 102.140625 23.382812 101.074219 23.222656 100.132812 22.898438 C 99.1875 22.574219 98.390625 22.128906 97.734375 21.558594 C 97.082031 20.980469 96.578125 20.300781 96.226562 19.519531 C 95.878906 18.738281 95.707031 17.886719 95.707031 16.964844 Z M 95.707031 16.964844 "/><g clip-rule="nonzero" clip-path="url(#753faf6fe5)"><path style=" stroke:none;fill-rule:nonzero;fill:#101828;fill-opacity:1;" d="M 111.230469 5.644531 L 114.355469 5.644531 L 114.355469 15.992188 L 120.183594 10.703125 L 124.964844 10.703125 L 118.449219 16.53125 L 125.378906 23.164062 L 120.6875 23.164062 L 116.054688 18.675781 L 114.355469 20.195312 L 114.355469 23.164062 L 111.230469 23.164062 Z M 111.230469 5.644531 "/></g></g></svg>